<svg width="12" height="12" xmlns="http://www.w3.org/2000/svg" xmlns:xlink="http://www.w3.org/1999/xlink" xml:space="preserve" overflow="hidden"><defs><clipPath id="clip0"><rect x="773" y="460" width="12" height="12"/></clipPath></defs><g clip-path="url(#clip0)" transform="translate(-773 -460)"><path d="M781.25 464.5C781.25 465.743 780.243 466.75 779 466.75 777.757 466.75 776.75 465.743 776.75 464.5 776.75 463.257 777.757 462.25 779 462.25 780.243 462.25 781.25 463.257 781.25 464.5Z" fill="#BEBEBE"/><path d="M773 466C773 462.686 775.686 460 779 460 782.314 460 785 462.686 785 466 785 469.314 782.314 472 779 472 775.686 472 773 469.314 773 466ZM779 460.75C776.101 460.75 773.75 463.101 773.75 466 773.75 467.191 774.155 468.347 774.899 469.277 775.432 468.419 776.604 467.5 779 467.5 781.396 467.5 782.568 468.419 783.101 469.277 784.911 467.012 784.542 463.709 782.277 461.899 781.347 461.155 780.191 460.75 779 460.75Z" fill="#BEBEBE" fill-rule="evenodd"/></g></svg>