<?xml version="1.0" standalone="no"?><!DOCTYPE svg PUBLIC "-//W3C//DTD SVG 1.1//EN" "http://www.w3.org/Graphics/SVG/1.1/DTD/svg11.dtd"><svg t="1677850695958" class="icon" viewBox="0 0 1024 1024" version="1.1" xmlns="http://www.w3.org/2000/svg" p-id="11130" xmlns:xlink="http://www.w3.org/1999/xlink" width="1024" height="1024"><path d="M512 1024c-4.399554 0-8.699118-0.999899-12.598722-2.999696L400.011357 971.005375c-9.399047-4.699523-15.298448-14.29855-15.298448-24.797486V522.850825c-44.695467-22.897678-82.491634-57.494169-109.188927-100.08985-27.397221-43.695569-41.995741-94.190448-41.895751-145.785215 0.799919-153.784404 126.187203-277.771829 279.971607-276.97191 152.584525 0.799919 276.171992 124.387385 276.97191 276.97191 0 51.594767-14.49853 102.089646-41.895751 145.785215-26.697292 42.59568-64.493459 77.092182-109.188926 100.08985v122.387587l103.389514 59.293987c13.298651 7.599229 17.898185 24.397526 10.398946 37.696177-0.29997 0.599939-0.699929 1.099888-0.999899 1.599838l-39.895954 59.893926 39.895954 59.893925c8.499138 12.698712 4.999493 29.896968-7.699219 38.296117-0.499949 0.399959-1.099888 0.699929-1.599838 0.999898l-117.388095 67.293176h-0.09999c-0.19998 0.09999-0.399959 0.19998-0.499949 0.299969s-0.499949 0.29997-0.699929 0.39996l-99.38992 49.994929c-4.199574 1.999797-8.499138 3.099686-12.898692 3.099686z m0-328.166719c15.398438 0 27.897171 12.398743 27.997161 27.797181V951.007403l43.395599-21.79779V544.348644c-6.8993 1.799817-14.09857 3.399655-21.59781 4.699524l-1.199878 0.199979c-2.099787 0.399959-4.099584 0.699929-5.999392 0.999899l-0.799919 0.09999-0.799919 0.09999c-3.599635 0.499949-7.29926 0.999899-10.698915 1.399858l-0.799918 0.09999-1.299869 0.09999-3.299665 0.299969-0.799919 0.09999c-1.399858 0.09999-2.799716 0.19998-4.299564 0.29997-1.199878 0.09999-2.399757 0.19998-3.599635 0.199979-1.899807 0.09999-3.599635 0.19998-5.199472 0.29997h-0.999899l-1.899807 0.09999c-2.999696 0.09999-5.699422 0.09999-8.199169 0.09999-2.499746 0-5.199473 0-8.199168-0.09999l-1.899808-0.09999h-0.999898c-2.099787-0.09999-3.699625-0.19998-5.199473-0.29997-1.199878-0.09999-2.399757-0.09999-3.599635-0.199979-1.399858-0.09999-2.899706-0.19998-4.299564-0.29997l-0.799919-0.09999-3.299665-0.299969-1.299868-0.09999-0.899909-0.09999c-3.399655-0.399959-7.09928-0.799919-10.698915-1.399858l-0.499949-0.09999-0.999899-0.09999c-2.099787-0.29997-4.199574-0.699929-5.999391-0.999899l-1.199879-0.199979c-7.499239-1.299868-14.698509-2.899706-21.497819-4.699524v384.860969L484.002839 951.007403V723.630462c0.09999-15.398438 12.598722-27.897171 27.997161-27.797181z m127.287091 13.598621v188.680865l49.69496-28.49711-33.596593-50.594869c-6.199371-9.299057-6.199371-21.39783 0-30.596897l33.696583-50.594869-49.79495-28.39712zM367.714633 109.092786c-92.990569 78.59203-104.689383 217.677924-26.197343 310.668493 42.3957 50.09492 104.889363 78.792009 170.48271 78.192071 121.787649 1.099888 221.377549-96.590204 222.477437-218.377853 0.599939-65.593348-27.997161-128.187-78.19207-170.482711 4.899503 14.998479 7.39925 30.696887 7.39925 46.395295 0 83.791502-67.993104 151.684617-151.784607 151.684617-83.791502 0-151.684617-67.893115-151.684617-151.684617 0.09999-15.698408 2.599736-31.396816 7.49924-46.395295zM512 60.397725c-52.594666 0.399959-94.890377 43.295609-94.490417 95.790285 0.399959 52.594666 43.295609 94.890377 95.790285 94.490417 52.294696-0.399959 94.490417-42.89565 94.490417-95.090356-0.19998-52.694656-43.095629-95.290336-95.790285-95.190346z m0 607.638375c-1.799817 0-3.699625-0.19998-5.499442-0.499949-1.799817-0.399959-3.499645-0.899909-5.199473-1.599838-1.699828-0.699929-3.299665-1.499848-4.799513-2.599736-1.499848-0.999899-2.999696-2.199777-4.299564-3.499645-10.798905-10.698915-10.898895-28.19714-0.19998-38.996045l0.19998-0.19998c1.299868-1.299868 2.699726-2.399757 4.299564-3.399655 1.499848-0.999899 3.099686-1.899807 4.799513-2.599736 1.699828-0.699929 3.399655-1.199878 5.199473-1.599838 3.599635-0.699929 7.29926-0.699929 10.898894 0 1.799817 0.399959 3.499645 0.899909 5.199473 1.599838 1.699828 0.699929 3.299665 1.599838 4.799513 2.599736s2.999696 2.199777 4.299564 3.399655c1.299868 1.299868 2.499746 2.699726 3.499645 4.199574s1.899807 3.099686 2.599737 4.799513c0.699929 1.699828 1.199878 3.399655 1.599837 5.199473 0.399959 1.799817 0.599939 3.599635 0.59994 5.399453 0 7.39925-2.899706 14.39854-8.099179 19.598012-5.399452 5.299463-12.498732 8.199168-19.897982 8.199168z" fill="#1DBEF5" p-id="11131"></path></svg>