<?xml version="1.0" standalone="no"?><!DOCTYPE svg PUBLIC "-//W3C//DTD SVG 1.1//EN" "http://www.w3.org/Graphics/SVG/1.1/DTD/svg11.dtd"><svg t="1677850615562" class="icon" viewBox="0 0 1024 1024" version="1.1" xmlns="http://www.w3.org/2000/svg" p-id="2691" xmlns:xlink="http://www.w3.org/1999/xlink" width="1024" height="1024"><path d="M512 553.6c-89.6 0-163.2-73.6-163.2-163.2s73.6-163.2 163.2-163.2 163.2 73.6 163.2 163.2c0 92.8-73.6 163.2-163.2 163.2z m0-259.2c-54.4 0-99.2 44.8-99.2 99.2 0 54.4 44.8 99.2 99.2 99.2 54.4 0 99.2-44.8 99.2-99.2 0-54.4-44.8-99.2-99.2-99.2z" p-id="2692" fill="#1DBEF5"></path><path d="M252.8 777.6c-9.6 0-16-3.2-22.4-9.6-12.8-12.8-12.8-32 0-44.8 172.8-172.8 390.4-172.8 563.2 0 12.8 12.8 12.8 32 0 44.8s-32 12.8-44.8 0c-150.4-150.4-323.2-150.4-473.6 0-6.4 6.4-16 9.6-22.4 9.6z" p-id="2693" fill="#1DBEF5"></path><path d="M512 928C281.6 928 96 742.4 96 512S281.6 96 512 96s416 185.6 416 416-185.6 416-416 416z m0-768C316.8 160 160 316.8 160 512s156.8 352 352 352 352-156.8 352-352S707.2 160 512 160z" p-id="2694" fill="#1DBEF5"></path></svg>