<svg width="16" height="16" xmlns="http://www.w3.org/2000/svg" xmlns:xlink="http://www.w3.org/1999/xlink" xml:space="preserve" overflow="hidden"><defs><clipPath id="clip0"><rect x="763" y="432" width="16" height="16"/></clipPath></defs><g clip-path="url(#clip0)" transform="translate(-763 -432)"><path d="M777 442.5C777 442.224 776.776 442 776.5 442L773.5 442C773.224 442 773 442.224 773 442.5 773 442.776 773.224 443 773.5 443L776.5 443C776.776 443 777 442.776 777 442.5ZM777 439.5C777 439.224 776.776 439 776.5 439L769.5 439C769.224 439 769 439.224 769 439.5 769 439.776 769.224 440 769.5 440L776.5 440C776.776 440 777 439.776 777 439.5ZM777 436.5C777 436.224 776.776 436 776.5 436L765.5 436C765.224 436 765 436.224 765 436.5 765 436.776 765.224 437 765.5 437L776.5 437C776.776 437 777 436.776 777 436.5Z" fill="#1DBEF5"/></g></svg>