<svg width="16" height="16" xmlns="http://www.w3.org/2000/svg" xmlns:xlink="http://www.w3.org/1999/xlink" xml:space="preserve" overflow="hidden"><defs><clipPath id="clip0"><rect x="804" y="217" width="16" height="16"/></clipPath></defs><g clip-path="url(#clip0)" transform="translate(-804 -217)"><path d="M809.5 217C809.776 217 810 217.224 810 217.5L810 221.5C810 222.328 809.328 223 808.5 223L804.5 223C804.224 223 804 222.776 804 222.5 804 222.224 804.224 222 804.5 222L808.5 222C808.776 222 809 221.776 809 221.5L809 217.5C809 217.224 809.224 217 809.5 217ZM814.5 217C814.776 217 815 217.224 815 217.5L815 221.5C815 221.776 815.224 222 815.5 222L819.5 222C819.776 222 820 222.224 820 222.5 820 222.776 819.776 223 819.5 223L815.5 223C814.672 223 814 222.328 814 221.5L814 217.5C814 217.224 814.224 217 814.5 217ZM804 227.5C804 227.224 804.224 227 804.5 227L808.5 227C809.328 227 810 227.672 810 228.5L810 232.5C810 232.776 809.776 233 809.5 233 809.224 233 809 232.776 809 232.5L809 228.5C809 228.224 808.776 228 808.5 228L804.5 228C804.224 228 804 227.776 804 227.5ZM814 228.5C814 227.672 814.672 227 815.5 227L819.5 227C819.776 227 820 227.224 820 227.5 820 227.776 819.776 228 819.5 228L815.5 228C815.224 228 815 228.224 815 228.5L815 232.5C815 232.776 814.776 233 814.5 233 814.224 233 814 232.776 814 232.5L814 228.5Z" fill="#BEBEBE"/></g></svg>