<svg width="16" height="16" xmlns="http://www.w3.org/2000/svg" xmlns:xlink="http://www.w3.org/1999/xlink" xml:space="preserve" overflow="hidden"><defs><clipPath id="clip0"><rect x="634" y="280" width="16" height="16"/></clipPath></defs><g clip-path="url(#clip0)" transform="translate(-634 -280)"><path d="M646.5 289C648.433 289 650 290.567 650 292.5 650 294.433 648.433 296 646.5 296 644.567 296 643 294.433 643 292.5 643 290.567 644.567 289 646.5 289ZM646.854 294.854C646.659 295.049 646.342 295.05 646.147 294.855 646.147 294.855 646.146 294.854 646.146 294.854L644.646 293.354C644.451 293.159 644.451 292.841 644.646 292.646 644.841 292.451 645.159 292.451 645.354 292.646L646 293.293 646 290.5C646 290.224 646.224 290 646.5 290 646.776 290 647 290.224 647 290.5L647 293.293 647.646 292.646C647.841 292.451 648.159 292.451 648.354 292.646 648.549 292.841 648.549 293.159 648.354 293.354L646.854 294.854Z" fill="#1DBEF5" fill-rule="evenodd"/><path d="M642 281C640.427 281 638.978 281.289 637.904 281.777 636.875 282.245 636 282.993 636 284 636 285.007 636.875 285.755 637.904 286.223 638.978 286.711 640.427 287 642 287 643.573 287 645.022 286.711 646.096 286.223 647.125 285.755 648 285.007 648 284 648 282.993 647.125 282.245 646.096 281.777 645.022 281.289 643.573 281 642 281Z" fill="#1DBEF5"/><path d="M636 287 636 286.161C636.457 286.593 637.004 286.912 637.49 287.133 638.722 287.693 640.318 288 642 288 643.682 288 645.278 287.693 646.51 287.133 646.996 286.913 647.543 286.593 648 286.161L648 287C648 287.424 647.845 287.802 647.589 288.133 645.756 287.679 643.835 288.414 642.774 289.976 642.516 289.992 642.258 290 642 290 640.427 290 638.978 289.711 637.904 289.223 636.875 288.755 636 288.007 636 287ZM642.257 290.998 642 291C640.318 291 638.722 290.693 637.49 290.133 637.004 289.913 636.457 289.593 636 289.161L636 290C636 291.007 636.875 291.755 637.904 292.223 638.978 292.711 640.427 293 642 293L642.027 293C641.953 292.324 642.032 291.64 642.257 290.998ZM642.255 293.998 642 294C640.318 294 638.722 293.693 637.49 293.133 637.004 292.913 636.457 292.593 636 292.161L636 293C636 294.007 636.875 294.755 637.904 295.223 638.978 295.711 640.427 296 642 296 642.536 296 643.058 295.966 643.555 295.903 642.964 295.392 642.516 294.735 642.255 293.998Z" fill="#1DBEF5"/></g></svg>