<svg width="16" height="16" xmlns="http://www.w3.org/2000/svg" xmlns:xlink="http://www.w3.org/1999/xlink" xml:space="preserve" overflow="hidden"><defs><clipPath id="clip0"><rect x="634" y="220" width="16" height="16"/></clipPath></defs><g clip-path="url(#clip0)" transform="translate(-634 -220)"><path d="M642 221C640.427 221 638.978 221.289 637.904 221.777 636.875 222.245 636 222.993 636 224 636 225.007 636.875 225.755 637.904 226.223 638.978 226.711 640.427 227 642 227 643.573 227 645.022 226.711 646.096 226.223 647.125 225.755 648 225.007 648 224 648 222.993 647.125 222.245 646.096 221.777 645.022 221.289 643.573 221 642 221Z" fill="#1DBEF5"/><path d="M636 227 636 226.161C636.457 226.593 637.004 226.912 637.49 227.133 638.722 227.693 640.318 228 642 228 643.682 228 645.278 227.693 646.51 227.133 646.996 226.913 647.543 226.593 648 226.161L648 227C648 227.424 647.845 227.802 647.589 228.133 645.756 227.679 643.835 228.414 642.774 229.976 642.516 229.992 642.258 230 642 230 640.427 230 638.978 229.711 637.904 229.223 636.875 228.755 636 228.007 636 227ZM642.257 230.998 642 231C640.318 231 638.722 230.693 637.49 230.133 637.004 229.913 636.457 229.593 636 229.161L636 230C636 231.007 636.875 231.755 637.904 232.223 638.978 232.711 640.427 233 642 233L642.027 233C641.953 232.324 642.032 231.64 642.257 230.998ZM642.255 233.998 642 234C640.318 234 638.722 233.693 637.49 233.133 637.004 232.913 636.457 232.593 636 232.161L636 233C636 234.007 636.875 234.755 637.904 235.223 638.978 235.711 640.427 236 642 236 642.536 236 643.058 235.966 643.555 235.903 642.964 235.391 642.516 234.735 642.255 233.998Z" fill="#1DBEF5"/><path d="M650 232.5C650 234.433 648.433 236 646.5 236 644.567 236 643 234.433 643 232.5 643 230.567 644.567 229 646.5 229 648.433 229 650 230.567 650 232.5ZM646.5 230.5C646.776 230.5 647 230.724 647 231L647 232.5C647 232.776 646.776 233 646.5 233 646.224 233 646 232.776 646 232.5L646 231C646 230.724 646.224 230.5 646.5 230.5ZM646.5 234.5C646.776 234.5 647 234.276 647 234 647 233.724 646.776 233.5 646.5 233.5 646.224 233.5 646 233.724 646 234 646 234.276 646.224 234.5 646.5 234.5Z" fill="#1DBEF5" fill-rule="evenodd"/></g></svg>