<?xml version="1.0" standalone="no"?><!DOCTYPE svg PUBLIC "-//W3C//DTD SVG 1.1//EN" "http://www.w3.org/Graphics/SVG/1.1/DTD/svg11.dtd"><svg t="1678016082389" class="icon" viewBox="0 0 1024 1024" version="1.1" xmlns="http://www.w3.org/2000/svg" p-id="3360" xmlns:xlink="http://www.w3.org/1999/xlink" width="1024" height="1024"><path d="M918.4 323.2c-12.8-12.8-32-12.8-44.8 0-198.4 198.4-524.8 198.4-723.2 0-12.8-12.8-32-12.8-44.8 0s-12.8 32 0 44.8c35.2 35.2 76.8 67.2 118.4 92.8l-3.2 3.2-35.2 57.6-32 57.6c-9.6 16-3.2 35.2 12.8 44.8 16 9.6 35.2 3.2 44.8-12.8l32-57.6 35.2-57.6c0-3.2 3.2-6.4 3.2-9.6 35.2 16 73.6 28.8 112 35.2l-16 44.8-22.4 64c-6.4 16 3.2 35.2 19.2 41.6 16 6.4 35.2-3.2 41.6-19.2l22.4-64 19.2-57.6c19.2 3.2 35.2 3.2 54.4 3.2 19.2 0 38.4 0 57.6-3.2l12.8 44.8 19.2 64c3.2 16 22.4 25.6 38.4 22.4s25.6-22.4 22.4-38.4l-19.2-64-9.6-38.4c41.6-9.6 83.2-22.4 121.6-41.6l28.8 48 32 57.6c9.6 16 28.8 19.2 44.8 12.8 16-9.6 19.2-28.8 12.8-44.8l-32-57.6-25.6-44.8c38.4-22.4 76.8-51.2 108.8-86.4 6.4-6.4 6.4-28.8-6.4-41.6z" p-id="3361" fill="#596B8F"></path></svg>