<?xml version="1.0" standalone="no"?><!DOCTYPE svg PUBLIC "-//W3C//DTD SVG 1.1//EN" "http://www.w3.org/Graphics/SVG/1.1/DTD/svg11.dtd"><svg t="1678016052483" class="icon" viewBox="0 0 1024 1024" version="1.1" xmlns="http://www.w3.org/2000/svg" p-id="3153" xmlns:xlink="http://www.w3.org/1999/xlink" width="1024" height="1024"><path d="M128 512c208 272 553.6 281.6 768 0-214.4-281.6-560-272-768 0z m384 83.2c-48 0-83.2-38.4-83.2-83.2s38.4-83.2 83.2-83.2c48 0 83.2 38.4 83.2 83.2s-35.2 83.2-83.2 83.2z" p-id="3154" fill="#596B8F"></path><path d="M457.6 483.2c-3.2 6.4-3.2 16-3.2 22.4 3.2 3.2 6.4 6.4 12.8 6.4 28.8 9.6 57.6-6.4 67.2-32 3.2-6.4 3.2-16 3.2-22.4-3.2-3.2-6.4-6.4-12.8-6.4-28.8-9.6-57.6 3.2-67.2 32z" p-id="3155" fill="#596B8F"></path></svg>