<svg width="12" height="12" xmlns="http://www.w3.org/2000/svg" xmlns:xlink="http://www.w3.org/1999/xlink" xml:space="preserve" overflow="hidden"><defs><clipPath id="clip0"><rect x="773" y="486" width="12" height="12"/></clipPath></defs><g clip-path="url(#clip0)" transform="translate(-773 -486)"><path d="M773 493.875C773 494.082 773.168 494.25 773.375 494.25L776.375 494.25C776.582 494.25 776.75 494.082 776.75 493.875 776.75 493.668 776.582 493.5 776.375 493.5L775.25 493.5 775.25 487.125C775.25 486.918 775.082 486.75 774.875 486.75 774.668 486.75 774.5 486.918 774.5 487.125L774.5 493.5 773.375 493.5C773.168 493.5 773 493.668 773 493.875ZM774.875 495C774.668 495 774.5 495.168 774.5 495.375L774.5 496.875C774.5 497.082 774.668 497.25 774.875 497.25 775.082 497.25 775.25 497.082 775.25 496.875L775.25 495.375C775.25 495.168 775.082 495 774.875 495ZM777.125 490.125C777.125 490.332 777.293 490.5 777.5 490.5L778.625 490.5 778.625 496.875C778.625 497.082 778.793 497.25 779 497.25 779.207 497.25 779.375 497.082 779.375 496.875L779.375 490.5 780.5 490.5C780.707 490.5 780.875 490.332 780.875 490.125 780.875 489.918 780.707 489.75 780.5 489.75L777.5 489.75C777.293 489.75 777.125 489.918 777.125 490.125ZM779 486.75C778.793 486.75 778.625 486.918 778.625 487.125L778.625 488.625C778.625 488.832 778.793 489 779 489 779.207 489 779.375 488.832 779.375 488.625L779.375 487.125C779.375 486.918 779.207 486.75 779 486.75ZM781.25 493.875C781.25 494.082 781.418 494.25 781.625 494.25L784.625 494.25C784.832 494.25 785 494.082 785 493.875 785 493.668 784.832 493.5 784.625 493.5L783.5 493.5 783.5 487.125C783.5 486.918 783.332 486.75 783.125 486.75 782.918 486.75 782.75 486.918 782.75 487.125L782.75 493.5 781.625 493.5C781.418 493.5 781.25 493.668 781.25 493.875ZM783.125 495C782.918 495 782.75 495.168 782.75 495.375L782.75 496.875C782.75 497.082 782.918 497.25 783.125 497.25 783.332 497.25 783.5 497.082 783.5 496.875L783.5 495.375C783.5 495.168 783.332 495 783.125 495Z" fill="#BEBEBE" fill-rule="evenodd"/></g></svg>