<?xml version="1.0" standalone="no"?><!DOCTYPE svg PUBLIC "-//W3C//DTD SVG 1.1//EN" "http://www.w3.org/Graphics/SVG/1.1/DTD/svg11.dtd"><svg t="1678439147702" class="icon" viewBox="0 0 1024 1024" version="1.1" xmlns="http://www.w3.org/2000/svg" p-id="8481" xmlns:xlink="http://www.w3.org/1999/xlink" width="1024" height="1024"><path d="M822.4 281.6c-12.8-12.8-32-9.6-44.8 3.2l-352 390.4-176-160c-12.8-12.8-32-9.6-44.8 3.2-12.8 12.8-9.6 32 3.2 44.8l185.6 169.6c3.2 3.2 6.4 3.2 9.6 6.4 0 3.2 3.2 6.4 6.4 6.4 6.4 6.4 12.8 9.6 22.4 9.6 9.6 0 16-3.2 22.4-9.6l374.4-412.8c6.4-19.2 6.4-38.4-6.4-51.2z" p-id="8482" fill="#BEBEBE"></path></svg>