<svg width="13" height="13" xmlns="http://www.w3.org/2000/svg" xmlns:xlink="http://www.w3.org/1999/xlink" xml:space="preserve" overflow="hidden"><defs><clipPath id="clip0"><rect x="432" y="462" width="13" height="13"/></clipPath></defs><g clip-path="url(#clip0)" transform="translate(-432 -462)"><path d="M436.036 469.922C435.926 469.727 435.678 469.659 435.483 469.77 435.288 469.88 435.219 470.128 435.33 470.323 435.331 470.325 435.332 470.327 435.333 470.328 435.986 471.46 437.193 472.157 438.5 472.156 439.807 472.156 441.014 471.46 441.667 470.328 441.781 470.135 441.716 469.886 441.522 469.772 441.329 469.659 441.08 469.724 440.966 469.917 440.965 469.919 440.964 469.92 440.964 469.922 440.456 470.802 439.516 471.344 438.5 471.344 437.484 471.344 436.544 470.802 436.036 469.922ZM437.688 466.157 437.688 466.062C437.688 465.614 437.324 465.25 436.875 465.25L434.665 465.25C434.216 465.25 433.853 465.614 433.853 466.063 433.853 466.129 433.861 466.195 433.877 466.26L434.13 467.269C434.31 467.992 434.96 468.5 435.706 468.5L436.062 468.5C436.909 468.5 437.614 467.85 437.683 467.006 437.946 466.916 438.222 466.872 438.5 466.875 438.819 466.875 439.101 466.927 439.317 467.006 439.386 467.85 440.091 468.5 440.938 468.5L441.293 468.5C442.039 468.5 442.689 467.992 442.87 467.269L443.122 466.26C443.231 465.825 442.967 465.383 442.532 465.274 442.467 465.258 442.401 465.25 442.335 465.25L440.125 465.25C439.676 465.25 439.312 465.614 439.312 466.062L439.312 466.157C439.046 466.093 438.774 466.061 438.5 466.062 438.216 466.062 437.939 466.095 437.688 466.157Z" fill="#F2F2F2"/><path d="M445 468.5C445 472.09 442.09 475 438.5 475 434.91 475 432 472.09 432 468.5 432 464.91 434.91 462 438.5 462 442.09 462 445 464.91 445 468.5ZM444.188 468.5C444.188 465.359 441.641 462.812 438.5 462.812 435.359 462.812 432.812 465.359 432.812 468.5 432.812 471.641 435.359 474.188 438.5 474.188 441.641 474.188 444.188 471.641 444.188 468.5Z" fill="#F2F2F2"/></g></svg>