<svg width="16" height="16" xmlns="http://www.w3.org/2000/svg" xmlns:xlink="http://www.w3.org/1999/xlink" xml:space="preserve" overflow="hidden"><defs><clipPath id="clip0"><rect x="804" y="437" width="16" height="16"/></clipPath></defs><g clip-path="url(#clip0)" transform="translate(-804 -437)"><path d="M809.828 447.172C809.633 446.977 809.316 446.977 809.121 447.172L805.025 451.268 805.025 448.5C805.025 448.224 804.801 448 804.525 448 804.249 448 804.025 448.224 804.025 448.5L804.025 452.475C804.025 452.751 804.249 452.975 804.525 452.975L808.5 452.975C808.776 452.975 809 452.751 809 452.475 809 452.199 808.776 451.975 808.5 451.975L805.732 451.975 809.828 447.879C810.023 447.684 810.023 447.367 809.828 447.172ZM814.172 447.172C814.367 446.977 814.684 446.977 814.879 447.172L818.975 451.268 818.975 448.5C818.975 448.224 819.199 448 819.475 448 819.751 448 819.975 448.224 819.975 448.5L819.975 452.475C819.975 452.751 819.751 452.975 819.475 452.975L815.5 452.975C815.224 452.975 815 452.751 815 452.475 815 452.199 815.224 451.975 815.5 451.975L818.268 451.975 814.172 447.879C813.977 447.684 813.977 447.367 814.172 447.172ZM814.172 442.828C814.367 443.023 814.684 443.023 814.879 442.828L818.975 438.732 818.975 441.5C818.975 441.776 819.199 442 819.475 442 819.751 442 819.975 441.776 819.975 441.5L819.975 437.525C819.975 437.249 819.751 437.025 819.475 437.025L815.5 437.025C815.224 437.025 815 437.249 815 437.525 815 437.801 815.224 438.025 815.5 438.025L818.268 438.025 814.172 442.121C813.977 442.316 813.977 442.633 814.172 442.828ZM809.828 442.828C809.633 443.023 809.316 443.023 809.121 442.828L805.025 438.732 805.025 441.5C805.025 441.776 804.801 442 804.525 442 804.249 442 804.025 441.776 804.025 441.5L804.025 437.525C804.025 437.249 804.249 437.025 804.525 437.025L808.5 437.025C808.776 437.025 809 437.249 809 437.525 809 437.801 808.776 438.025 808.5 438.025L805.732 438.025 809.828 442.121C810.023 442.316 810.023 442.633 809.828 442.828Z" fill="#BEBEBE" fill-rule="evenodd"/></g></svg>